{
	"asset":{
		"generator":"Khronos glTF Blender I/O v3.6.27",
		"version":"2.0"
	},
	"scene":0,
	"scenes":[
		{
			"name":"Scene",
			"nodes":[
				0,
				1,
				2
			]
		}
	],
	"nodes":[
		{
			"mesh":0,
			"name":"Circle",
			"scale":[
				0.15967093408107758,
				0.15967093408107758,
				0.15967093408107758
			],
			"translation":[
				-0.002096831798553467,
				3.6787712574005127,
				0
			]
		},
		{
			"mesh":1,
			"name":"Cube.006",
			"scale":[
				0.7450281381607056,
				0.7640284299850464,
				0.7450281381607056
			],
			"translation":[
				3.7054716813145205e-05,
				1.1956260204315186,
				0.0007588319131173193
			]
		},
		{
			"mesh":2,
			"name":"Sphere",
			"scale":[
				12.732240676879883,
				12.732240676879883,
				12.732240676879883
			]
		}
	],
	"materials":[
		{
			"doubleSided":true,
			"name":"White",
			"pbrMetallicRoughness":{}
		},
		{
			"doubleSided":true,
			"name":"Black",
			"pbrMetallicRoughness":{}
		},
		{
			"doubleSided":true,
			"name":"Tan",
			"pbrMetallicRoughness":{}
		},
		{
			"doubleSided":true,
			"name":"JetBlack",
			"pbrMetallicRoughness":{}
		},
		{
			"doubleSided":true,
			"name":"Material.002",
			"pbrMetallicRoughness":{}
		},
		{
			"doubleSided":true,
			"name":"Yellow",
			"pbrMetallicRoughness":{}
		},
		{
			"doubleSided":true,
			"name":"Red",
			"pbrMetallicRoughness":{}
		},
		{
			"doubleSided":true,
			"name":"Orange",
			"pbrMetallicRoughness":{}
		}
	],
	"meshes":[
		{
			"name":"Circle",
			"primitives":[
				{
					"attributes":{
						"POSITION":0,
						"NORMAL":1
					},
					"indices":2,
					"material":0
				},
				{
					"attributes":{
						"POSITION":3,
						"NORMAL":4
					},
					"indices":5,
					"material":1
				},
				{
					"attributes":{
						"POSITION":6,
						"NORMAL":7
					},
					"indices":8,
					"material":2
				},
				{
					"attributes":{
						"POSITION":9,
						"NORMAL":10
					},
					"indices":11,
					"material":3
				}
			]
		},
		{
			"name":"Cube.007",
			"primitives":[
				{
					"attributes":{
						"POSITION":12,
						"NORMAL":13
					},
					"indices":14,
					"material":4
				}
			]
		},
		{
			"name":"Sphere.002",
			"primitives":[
				{
					"attributes":{
						"POSITION":15,
						"NORMAL":16,
						"TEXCOORD_0":17,
						"TEXCOORD_1":18
					},
					"indices":19,
					"material":5
				},
				{
					"attributes":{
						"POSITION":20,
						"NORMAL":21,
						"TEXCOORD_0":22,
						"TEXCOORD_1":23
					},
					"indices":24,
					"material":1
				},
				{
					"attributes":{
						"POSITION":25,
						"NORMAL":26,
						"TEXCOORD_0":27,
						"TEXCOORD_1":28
					},
					"indices":29,
					"material":6
				},
				{
					"attributes":{
						"POSITION":30,
						"NORMAL":31,
						"TEXCOORD_0":32,
						"TEXCOORD_1":33
					},
					"indices":34,
					"material":7
				}
			]
		}
	],
	"accessors":[
		{
			"bufferView":0,
			"componentType":5126,
			"count":3776,
			"max":[
				4.726792812347412,
				4.427640914916992,
				4.538944721221924
			],
			"min":[
				-4.778312683105469,
				-1.0672645568847656,
				-4.538944721221924
			],
			"type":"VEC3"
		},
		{
			"bufferView":1,
			"componentType":5126,
			"count":3776,
			"type":"VEC3"
		},
		{
			"bufferView":2,
			"componentType":5123,
			"count":6384,
			"type":"SCALAR"
		},
		{
			"bufferView":3,
			"componentType":5126,
			"count":3328,
			"max":[
				4.757961750030518,
				0.04442644119262695,
				4.913424015045166
			],
			"min":[
				-4.7316975593566895,
				-10.88254451751709,
				-4.913424015045166
			],
			"type":"VEC3"
		},
		{
			"bufferView":4,
			"componentType":5126,
			"count":3328,
			"type":"VEC3"
		},
		{
			"bufferView":5,
			"componentType":5123,
			"count":6096,
			"type":"SCALAR"
		},
		{
			"bufferView":6,
			"componentType":5126,
			"count":2018,
			"max":[
				4.679386615753174,
				-10.757061004638672,
				4.670774936676025
			],
			"min":[
				-4.652657985687256,
				-20.336658477783203,
				-4.661269664764404
			],
			"type":"VEC3"
		},
		{
			"bufferView":7,
			"componentType":5126,
			"count":2018,
			"type":"VEC3"
		},
		{
			"bufferView":8,
			"componentType":5123,
			"count":12096,
			"type":"SCALAR"
		},
		{
			"bufferView":9,
			"componentType":5126,
			"count":3090,
			"max":[
				4.813539028167725,
				-10.661556243896484,
				4.804927349090576
			],
			"min":[
				-4.786810398101807,
				-20.378585815429688,
				-4.795422077178955
			],
			"type":"VEC3"
		},
		{
			"bufferView":10,
			"componentType":5126,
			"count":3090,
			"type":"VEC3"
		},
		{
			"bufferView":11,
			"componentType":5123,
			"count":15072,
			"type":"SCALAR"
		},
		{
			"bufferView":12,
			"componentType":5126,
			"count":1364,
			"max":[
				1.0019999742507935,
				1.0085113048553467,
				0.3333333134651184
			],
			"min":[
				-1,
				-1,
				-0.35027816891670227
			],
			"type":"VEC3"
		},
		{
			"bufferView":13,
			"componentType":5126,
			"count":1364,
			"type":"VEC3"
		},
		{
			"bufferView":14,
			"componentType":5123,
			"count":3456,
			"type":"SCALAR"
		},
		{
			"bufferView":15,
			"componentType":5126,
			"count":240,
			"max":[
				0.880506157875061,
				2.4126555919647217,
				0.8805493116378784
			],
			"min":[
				-0.8805025815963745,
				1.411363959312439,
				-0.8804593682289124
			],
			"type":"VEC3"
		},
		{
			"bufferView":16,
			"componentType":5126,
			"count":240,
			"type":"VEC3"
		},
		{
			"bufferView":17,
			"componentType":5126,
			"count":240,
			"type":"VEC2"
		},
		{
			"bufferView":18,
			"componentType":5126,
			"count":240,
			"type":"VEC2"
		},
		{
			"bufferView":19,
			"componentType":5123,
			"count":816,
			"type":"SCALAR"
		},
		{
			"bufferView":20,
			"componentType":5126,
			"count":285,
			"max":[
				0.6226124167442322,
				2.6381008625030518,
				0.6226556897163391
			],
			"min":[
				-0.6226088404655457,
				0.33612722158432007,
				-0.6225655674934387
			],
			"type":"VEC3"
		},
		{
			"bufferView":21,
			"componentType":5126,
			"count":285,
			"type":"VEC3"
		},
		{
			"bufferView":22,
			"componentType":5126,
			"count":285,
			"type":"VEC2"
		},
		{
			"bufferView":23,
			"componentType":5126,
			"count":285,
			"type":"VEC2"
		},
		{
			"bufferView":24,
			"componentType":5123,
			"count":792,
			"type":"SCALAR"
		},
		{
			"bufferView":25,
			"componentType":5126,
			"count":288,
			"max":[
				0.7625409960746765,
				2.6118738651275635,
				0.7625840902328491
			],
			"min":[
				-0.76253741979599,
				0.6301831007003784,
				-0.7624942064285278
			],
			"type":"VEC3"
		},
		{
			"bufferView":26,
			"componentType":5126,
			"count":288,
			"type":"VEC3"
		},
		{
			"bufferView":27,
			"componentType":5126,
			"count":288,
			"type":"VEC2"
		},
		{
			"bufferView":28,
			"componentType":5126,
			"count":288,
			"type":"VEC2"
		},
		{
			"bufferView":29,
			"componentType":5123,
			"count":720,
			"type":"SCALAR"
		},
		{
			"bufferView":30,
			"componentType":5126,
			"count":312,
			"max":[
				0.8505037426948547,
				2.534978151321411,
				0.8505469560623169
			],
			"min":[
				-0.8505001664161682,
				0.8276216983795166,
				-0.8504568934440613
			],
			"type":"VEC3"
		},
		{
			"bufferView":31,
			"componentType":5126,
			"count":312,
			"type":"VEC3"
		},
		{
			"bufferView":32,
			"componentType":5126,
			"count":312,
			"type":"VEC2"
		},
		{
			"bufferView":33,
			"componentType":5126,
			"count":312,
			"type":"VEC2"
		},
		{
			"bufferView":34,
			"componentType":5123,
			"count":672,
			"type":"SCALAR"
		}
	],
	"bufferViews":[
		{
			"buffer":0,
			"byteLength":45312,
			"byteOffset":0,
			"target":34962
		},
		{
			"buffer":0,
			"byteLength":45312,
			"byteOffset":45312,
			"target":34962
		},
		{
			"buffer":0,
			"byteLength":12768,
			"byteOffset":90624,
			"target":34963
		},
		{
			"buffer":0,
			"byteLength":39936,
			"byteOffset":103392,
			"target":34962
		},
		{
			"buffer":0,
			"byteLength":39936,
			"byteOffset":143328,
			"target":34962
		},
		{
			"buffer":0,
			"byteLength":12192,
			"byteOffset":183264,
			"target":34963
		},
		{
			"buffer":0,
			"byteLength":24216,
			"byteOffset":195456,
			"target":34962
		},
		{
			"buffer":0,
			"byteLength":24216,
			"byteOffset":219672,
			"target":34962
		},
		{
			"buffer":0,
			"byteLength":24192,
			"byteOffset":243888,
			"target":34963
		},
		{
			"buffer":0,
			"byteLength":37080,
			"byteOffset":268080,
			"target":34962
		},
		{
			"buffer":0,
			"byteLength":37080,
			"byteOffset":305160,
			"target":34962
		},
		{
			"buffer":0,
			"byteLength":30144,
			"byteOffset":342240,
			"target":34963
		},
		{
			"buffer":0,
			"byteLength":16368,
			"byteOffset":372384,
			"target":34962
		},
		{
			"buffer":0,
			"byteLength":16368,
			"byteOffset":388752,
			"target":34962
		},
		{
			"buffer":0,
			"byteLength":6912,
			"byteOffset":405120,
			"target":34963
		},
		{
			"buffer":0,
			"byteLength":2880,
			"byteOffset":412032,
			"target":34962
		},
		{
			"buffer":0,
			"byteLength":2880,
			"byteOffset":414912,
			"target":34962
		},
		{
			"buffer":0,
			"byteLength":1920,
			"byteOffset":417792,
			"target":34962
		},
		{
			"buffer":0,
			"byteLength":1920,
			"byteOffset":419712,
			"target":34962
		},
		{
			"buffer":0,
			"byteLength":1632,
			"byteOffset":421632,
			"target":34963
		},
		{
			"buffer":0,
			"byteLength":3420,
			"byteOffset":423264,
			"target":34962
		},
		{
			"buffer":0,
			"byteLength":3420,
			"byteOffset":426684,
			"target":34962
		},
		{
			"buffer":0,
			"byteLength":2280,
			"byteOffset":430104,
			"target":34962
		},
		{
			"buffer":0,
			"byteLength":2280,
			"byteOffset":432384,
			"target":34962
		},
		{
			"buffer":0,
			"byteLength":1584,
			"byteOffset":434664,
			"target":34963
		},
		{
			"buffer":0,
			"byteLength":3456,
			"byteOffset":436248,
			"target":34962
		},
		{
			"buffer":0,
			"byteLength":3456,
			"byteOffset":439704,
			"target":34962
		},
		{
			"buffer":0,
			"byteLength":2304,
			"byteOffset":443160,
			"target":34962
		},
		{
			"buffer":0,
			"byteLength":2304,
			"byteOffset":445464,
			"target":34962
		},
		{
			"buffer":0,
			"byteLength":1440,
			"byteOffset":447768,
			"target":34963
		},
		{
			"buffer":0,
			"byteLength":3744,
			"byteOffset":449208,
			"target":34962
		},
		{
			"buffer":0,
			"byteLength":3744,
			"byteOffset":452952,
			"target":34962
		},
		{
			"buffer":0,
			"byteLength":2496,
			"byteOffset":456696,
			"target":34962
		},
		{
			"buffer":0,
			"byteLength":2496,
			"byteOffset":459192,
			"target":34962
		},
		{
			"buffer":0,
			"byteLength":1344,
			"byteOffset":461688,
			"target":34963
		}
	],
	"buffers":[
		{
			"byteLength":463032,
			"uri":"data:application/octet-stream;base64,"
		}
	]
}
