{
	"asset":{
		"generator":"Khronos glTF Blender I/O v3.6.27",
		"version":"2.0"
	},
	"scene":0,
	"scenes":[
		{
			"name":"Scene",
			"nodes":[
				0,
				1,
				2
			]
		}
	],
	"nodes":[
		{
			"mesh":0,
			"name":"balao",
			"rotation":[
				-0.06569331884384155,
				0.09614799171686172,
				0.003835492068901658,
				0.9931894540786743
			],
			"scale":[
				1.7503401041030884,
				1.7503401041030884,
				1.7503401041030884
			],
			"translation":[
				-0.04117699712514877,
				1.9913241863250732,
				-0.25481006503105164
			]
		},
		{
			"mesh":1,
			"name":"cesto",
			"rotation":[
				-0.06569331884384155,
				0.09614799171686172,
				0.003835492068901658,
				0.9931894540786743
			],
			"scale":[
				0.48139843344688416,
				0.48139843344688416,
				0.48139840364456177
			],
			"translation":[
				0.02668067067861557,
				-1.074249029159546,
				0.16825982928276062
			]
		},
		{
			"mesh":2,
			"name":"queimadores",
			"rotation":[
				-0.05094287544488907,
				-0.6352792978286743,
				-0.025342276319861412,
				0.7701836228370667
			],
			"scale":[
				0.018882256001234055,
				0.018882256001234055,
				0.018882256001234055
			],
			"translation":[
				-0.086713045835495,
				-0.7855292558670044,
				0.03820204362273216
			]
		}
	],
	"materials":[
		{
			"doubleSided":true,
			"name":"amarelo",
			"pbrMetallicRoughness":{
				"baseColorFactor":[
					0.800000011920929,
					0.7182547450065613,
					0.06826358288526535,
					1
				],
				"metallicFactor":0,
				"roughnessFactor":0.5
			}
		},
		{
			"doubleSided":true,
			"name":"vermelho",
			"pbrMetallicRoughness":{
				"baseColorFactor":[
					0,
					0.1473090946674347,
					0.0045396992936730385,
					1
				],
				"metallicFactor":0,
				"roughnessFactor":0.5
			}
		},
		{
			"doubleSided":true,
			"name":"emendas",
			"pbrMetallicRoughness":{
				"baseColorFactor":[
					0.0188895333558321,
					0,
					0.20189499855041504,
					1
				],
				"metallicFactor":0,
				"roughnessFactor":0.5
			}
		},
		{
			"doubleSided":true,
			"name":"metal",
			"pbrMetallicRoughness":{
				"baseColorFactor":[
					0.5595902800559998,
					0.5595902800559998,
					0.5595902800559998,
					1
				],
				"metallicFactor":0,
				"roughnessFactor":0.5
			}
		},
		{
			"doubleSided":true,
			"name":"palha",
			"pbrMetallicRoughness":{
				"baseColorFactor":[
					0.21402882039546967,
					0.11576321721076965,
					0.015803268179297447,
					1
				],
				"metallicFactor":0,
				"roughnessFactor":0.5
			}
		}
	],
	"meshes":[
		{
			"name":"Circle.001",
			"primitives":[
				{
					"attributes":{
						"POSITION":0,
						"NORMAL":1
					},
					"indices":2,
					"material":0
				},
				{
					"attributes":{
						"POSITION":3,
						"NORMAL":4
					},
					"indices":5,
					"material":1
				},
				{
					"attributes":{
						"POSITION":6,
						"NORMAL":7
					},
					"indices":8,
					"material":2
				}
			]
		},
		{
			"name":"Circle.003",
			"primitives":[
				{
					"attributes":{
						"POSITION":9,
						"NORMAL":10
					},
					"indices":11,
					"material":2
				},
				{
					"attributes":{
						"POSITION":12,
						"NORMAL":13
					},
					"indices":14,
					"material":3
				},
				{
					"attributes":{
						"POSITION":15,
						"NORMAL":16
					},
					"indices":17,
					"material":4
				}
			]
		},
		{
			"name":"Circle.004",
			"primitives":[
				{
					"attributes":{
						"POSITION":18,
						"NORMAL":19
					},
					"indices":20,
					"material":3
				}
			]
		}
	],
	"accessors":[
		{
			"bufferView":0,
			"componentType":5126,
			"count":818,
			"max":[
				0.9579809308052063,
				0.7555044293403625,
				0.9457189440727234
			],
			"min":[
				-0.9352431893348694,
				-1.6515960693359375,
				-0.948724627494812
			],
			"type":"VEC3"
		},
		{
			"bufferView":1,
			"componentType":5126,
			"count":818,
			"type":"VEC3"
		},
		{
			"bufferView":2,
			"componentType":5123,
			"count":1902,
			"type":"SCALAR"
		},
		{
			"bufferView":3,
			"componentType":5126,
			"count":792,
			"max":[
				0.9323185682296753,
				0.7555044293403625,
				0.9467079639434814
			],
			"min":[
				-0.9571201801300049,
				-1.3463631868362427,
				-0.9526811838150024
			],
			"type":"VEC3"
		},
		{
			"bufferView":4,
			"componentType":5126,
			"count":792,
			"type":"VEC3"
		},
		{
			"bufferView":5,
			"componentType":5123,
			"count":1848,
			"type":"SCALAR"
		},
		{
			"bufferView":6,
			"componentType":5126,
			"count":3130,
			"max":[
				0.9579809308052063,
				0.7555044293403625,
				0.9467079639434814
			],
			"min":[
				-0.9571201801300049,
				-1.651596188545227,
				-0.9526811838150024
			],
			"type":"VEC3"
		},
		{
			"bufferView":7,
			"componentType":5126,
			"count":3130,
			"type":"VEC3"
		},
		{
			"bufferView":8,
			"componentType":5123,
			"count":15144,
			"type":"SCALAR"
		},
		{
			"bufferView":9,
			"componentType":5126,
			"count":480,
			"max":[
				0.41770997643470764,
				0.37001460790634155,
				0.3040713965892792
			],
			"min":[
				-0.39521732926368713,
				-0.0987202525138855,
				-0.369850218296051
			],
			"type":"VEC3"
		},
		{
			"bufferView":10,
			"componentType":5126,
			"count":480,
			"type":"VEC3"
		},
		{
			"bufferView":11,
			"componentType":5123,
			"count":2424,
			"type":"SCALAR"
		},
		{
			"bufferView":12,
			"componentType":5126,
			"count":384,
			"max":[
				0.1737143099308014,
				0.43352410197257996,
				0.1811179369688034
			],
			"min":[
				-0.18377675116062164,
				0.3656206727027893,
				-0.25758057832717896
			],
			"type":"VEC3"
		},
		{
			"bufferView":13,
			"componentType":5126,
			"count":384,
			"type":"VEC3"
		},
		{
			"bufferView":14,
			"componentType":5123,
			"count":2016,
			"type":"SCALAR"
		},
		{
			"bufferView":15,
			"componentType":5126,
			"count":252,
			"max":[
				0.39711442589759827,
				-0.0987202525138855,
				0.2834758460521698
			],
			"min":[
				-0.37462180852890015,
				-0.6621781587600708,
				-0.34903377294540405
			],
			"type":"VEC3"
		},
		{
			"bufferView":16,
			"componentType":5126,
			"count":252,
			"type":"VEC3"
		},
		{
			"bufferView":17,
			"componentType":5123,
			"count":1344,
			"type":"SCALAR"
		},
		{
			"bufferView":18,
			"componentType":5126,
			"count":19352,
			"max":[
				3.96337628364563,
				1.7560474872589111,
				1.6069459915161133
			],
			"min":[
				-4.002997398376465,
				-5.1865386962890625,
				-1.5892131328582764
			],
			"type":"VEC3"
		},
		{
			"bufferView":19,
			"componentType":5126,
			"count":19352,
			"type":"VEC3"
		},
		{
			"bufferView":20,
			"componentType":5123,
			"count":29064,
			"type":"SCALAR"
		}
	],
	"bufferViews":[
		{
			"buffer":0,
			"byteLength":9816,
			"byteOffset":0,
			"target":34962
		},
		{
			"buffer":0,
			"byteLength":9816,
			"byteOffset":9816,
			"target":34962
		},
		{
			"buffer":0,
			"byteLength":3804,
			"byteOffset":19632,
			"target":34963
		},
		{
			"buffer":0,
			"byteLength":9504,
			"byteOffset":23436,
			"target":34962
		},
		{
			"buffer":0,
			"byteLength":9504,
			"byteOffset":32940,
			"target":34962
		},
		{
			"buffer":0,
			"byteLength":3696,
			"byteOffset":42444,
			"target":34963
		},
		{
			"buffer":0,
			"byteLength":37560,
			"byteOffset":46140,
			"target":34962
		},
		{
			"buffer":0,
			"byteLength":37560,
			"byteOffset":83700,
			"target":34962
		},
		{
			"buffer":0,
			"byteLength":30288,
			"byteOffset":121260,
			"target":34963
		},
		{
			"buffer":0,
			"byteLength":5760,
			"byteOffset":151548,
			"target":34962
		},
		{
			"buffer":0,
			"byteLength":5760,
			"byteOffset":157308,
			"target":34962
		},
		{
			"buffer":0,
			"byteLength":4848,
			"byteOffset":163068,
			"target":34963
		},
		{
			"buffer":0,
			"byteLength":4608,
			"byteOffset":167916,
			"target":34962
		},
		{
			"buffer":0,
			"byteLength":4608,
			"byteOffset":172524,
			"target":34962
		},
		{
			"buffer":0,
			"byteLength":4032,
			"byteOffset":177132,
			"target":34963
		},
		{
			"buffer":0,
			"byteLength":3024,
			"byteOffset":181164,
			"target":34962
		},
		{
			"buffer":0,
			"byteLength":3024,
			"byteOffset":184188,
			"target":34962
		},
		{
			"buffer":0,
			"byteLength":2688,
			"byteOffset":187212,
			"target":34963
		},
		{
			"buffer":0,
			"byteLength":232224,
			"byteOffset":189900,
			"target":34962
		},
		{
			"buffer":0,
			"byteLength":232224,
			"byteOffset":422124,
			"target":34962
		},
		{
			"buffer":0,
			"byteLength":58128,
			"byteOffset":654348,
			"target":34963
		}
	],
	"buffers":[
		{
			"byteLength":712476,
			"uri":"data:application/octet-stream;base64,"
		}
	]
}
